<?xml version="1.0" standalone="no"?>
<!DOCTYPE svg PUBLIC "-//W3C//DTD SVG 20010904//EN"
 "http://www.w3.org/TR/2001/REC-SVG-20010904/DTD/svg10.dtd">
<svg version="1.0" xmlns="http://www.w3.org/2000/svg"
 width="1200.000000pt" height="1200.000000pt" viewBox="0 0 1200.000000 1200.000000"
 preserveAspectRatio="xMidYMid meet">

<g transform="translate(0.000000,1200.000000) scale(0.100000,-0.100000)"
fill="#000000" stroke="none">
<path d="M2297 9703 c-9 -8 -9 -1400 0 -4755 l6 -2648 3697 0 3697 0 6 3203
c4 1761 4 3425 0 3698 l-6 496 -2511 6 c-3195 9 -4881 9 -4889 0z m5153 -933
c143 -12 304 -42 407 -76 106 -34 282 -120 371 -181 83 -57 252 -200 252 -214
0 -5 -95 -119 -211 -254 l-212 -245 -38 35 c-169 152 -364 253 -565 291 -120
22 -318 15 -424 -16 -387 -112 -650 -483 -650 -920 0 -452 268 -820 675 -925
86 -23 245 -30 350 -16 220 29 398 115 600 290 l70 61 215 -216 215 -215 -106
-102 c-291 -280 -578 -405 -1007 -439 -488 -37 -918 107 -1239 416 -285 274
-442 611 -472 1017 -28 369 65 730 266 1033 88 133 282 328 412 415 312 207
684 296 1091 261z m-3110 -50 c212 -17 360 -55 521 -135 275 -138 456 -382
520 -700 23 -113 18 -389 -9 -497 -50 -201 -129 -346 -261 -479 -151 -150
-331 -244 -586 -306 -107 -25 -121 -26 -492 -30 l-383 -5 0 -454 0 -454 -335
0 -335 0 0 1528 c0 841 3 1532 7 1535 10 11 1213 8 1353 -3z m1438 -5267 l2
-233 -1390 0 -1390 0 0 235 0 235 1388 -2 1387 -3 3 -232z"/>
<path d="M3650 7655 l0 -477 328 5 c352 5 388 9 495 64 58 29 140 102 173 155
91 143 87 396 -9 530 -60 86 -139 136 -265 170 -68 18 -116 21 -399 25 l-323
6 0 -478z"/>
</g>
</svg>
